HIERARCHY
ROOT Hips
{
    OFFSET 0.0 0.0 0.0
    CHANNELS 6 Xposition Yposition Zposition Zrotation Xrotation Yrotation
    JOINT LeftUpLeg
    {
        OFFSET 12.955824454507038 0.0 0.0
        CHANNELS 3 Zrotation Xrotation Yrotation
        JOINT LeftLeg
        {
            OFFSET 0.0 0.0 -47.49348772050904
            CHANNELS 3 Zrotation Xrotation Yrotation
            JOINT LeftFoot
            {
                OFFSET 0.0 0.0 -35.748259993046794
                CHANNELS 3 Zrotation Xrotation Yrotation
                JOINT LeftToeBase
                {
                    OFFSET 0.0 -12.007134849802721 0.0
                    CHANNELS 3 Zrotation Xrotation Yrotation
                    End Site
                    {
                        OFFSET 0 0 0
                    }
                }
            }
        }
    }
    JOINT RightUpLeg
    {
        OFFSET -12.955824454507038 0.0 0.0
        CHANNELS 3 Zrotation Xrotation Yrotation
        JOINT RightLeg
        {
            OFFSET 0.0 0.0 -47.49348772050904
            CHANNELS 3 Zrotation Xrotation Yrotation
            JOINT RightFoot
            {
                OFFSET 0.0 0.0 -35.748259993046794
                CHANNELS 3 Zrotation Xrotation Yrotation
                JOINT RightToeBase
                {
                    OFFSET 0.0 -12.007134849802721 0.0
                    CHANNELS 3 Zrotation Xrotation Yrotation
                    End Site
                    {
                        OFFSET 0 0 0
                    }
                }
            }
        }
    }
    JOINT Spine
    {
        OFFSET 0.0 0.0 12.534586541496093
        CHANNELS 3 Zrotation Xrotation Yrotation
        JOINT Spine1
        {
            OFFSET 0.0 0.0 12.361711758415627
            CHANNELS 3 Zrotation Xrotation Yrotation
            JOINT Spine2
            {
                OFFSET 0.0 0.0 12.361711758415627
                CHANNELS 3 Zrotation Xrotation Yrotation
                JOINT Spine3
                {
                    OFFSET 0.0 0.0 12.361711758415625
                    CHANNELS 3 Zrotation Xrotation Yrotation
                    JOINT Spine4
                    {
                        OFFSET 0.0 0.0 12.361711758415634
                        CHANNELS 3 Zrotation Xrotation Yrotation
                        JOINT RightShoulder
                        {
                            OFFSET -21.963051487656628 0.0 0.0
                            CHANNELS 3 Zrotation Xrotation Yrotation
                            JOINT RightArm
                            {
                                OFFSET -32.7193402973798 0.0 0.0
                                CHANNELS 3 Zrotation Xrotation Yrotation
                                JOINT RightForeArm
                                {
                                    OFFSET -30.644366312438283 0.0 0.0
                                    CHANNELS 3 Zrotation Xrotation Yrotation
                                    JOINT RightHand
                                    {
                                        OFFSET -9.692156049958042 0.0 0.0
                                        CHANNELS 3 Zrotation Xrotation Yrotation
                                        End Site
                                        {
                                            OFFSET 0 0 0
                                        }
                                    }
                                }
                            }
                        }
                        JOINT LeftShoulder
                        {
                            OFFSET 21.963051487656628 0.0 0.0
                            CHANNELS 3 Zrotation Xrotation Yrotation
                            JOINT LeftArm
                            {
                                OFFSET 32.7193402973798 0.0 0.0
                                CHANNELS 3 Zrotation Xrotation Yrotation
                                JOINT LeftForeArm
                                {
                                    OFFSET 30.644366312438283 0.0 0.0
                                    CHANNELS 3 Zrotation Xrotation Yrotation
                                    JOINT LeftHand
                                    {
                                        OFFSET 9.692156049958042 0.0 0.0
                                        CHANNELS 3 Zrotation Xrotation Yrotation
                                        End Site
                                        {
                                            OFFSET 0 0 0
                                        }
                                    }
                                }
                            }
                        }
                        JOINT Neck
                        {
                            OFFSET 0.0 0.0 12.361711853255931
                            CHANNELS 3 Zrotation Xrotation Yrotation
                            JOINT Head
                            {
                                OFFSET 0.0 0.0 25.405796779621397
                                CHANNELS 3 Zrotation Xrotation Yrotation
                                End Site
                                {
                                    OFFSET 0 0 0
                                }
                            }
                        }
                    }
                }
            }
        }
    }
}
MOTION
Frames: 8
Frame Time: 0.03333333333333333
44.32715706825256 -31.241758310794832 523.3913097381592 123.8807207720907 -82.09978546787909 122.96828011276153 -4.546593555246868 6.705459125084441 -35.615354972389966 9.574098229199972 -1.310801309706131 50.77459132687508 -56.48717447328034 0.0 58.98892758508171 0.0 0.0 0.0 28.093774531324385 26.767352002537137 15.469424397673102 -20.05060288711528 -7.803358474898672 -38.97555717078189 -38.76305384032913 -2.2263882770244617e-14 -85.29061300189741 0.0 0.0 0.0 -0.05370702893107081 2.00623677858597 0.09049054075231368 0.0 0.0 0.0 0.0 0.0 0.0 0.0 0.0 0.0 0.0 0.0 0.0 131.49196370433265 10.857702252749196 -161.8978595614797 96.30927612228123 -3.748581835432332e-15 1.3721031151435253e-14 2.153089041794831e-14 65.88322289407853 -2.153089041794831e-14 0.0 0.0 0.0 -135.86049989848968 9.945307268610883 158.80574982450008 -106.22168495138415 -3.178416225757115e-15 6.362178141544087e-15 -180.0 -27.518086688356753 180.0 7.951386703658792e-16 -5.517382872562698e-33 -7.951386703658792e-16 1.3182937874747314 1.9380222547362785e-15 -2.2296541191619856e-17 0.0 0.0 -7.951386703658792e-16
44.77631449699402 -31.181763195991515 523.3841909408569 122.79783544615358 -81.93603632652373 122.0041993647324 -3.768673039002124 5.981583190867317 -35.55459290035711 8.588864704985204 -1.1940756755977529 50.15614457727297 -50.47347404784789 -3.1805546814635168e-15 54.74013925594297 0.0 0.0 0.0 29.05175517503121 27.324952365104497 15.769764789018428 -21.870326789601755 -8.119724482443585 -41.065899014377024 -38.0058201789781 -9.54166404439055e-15 -81.06896199496971 0.0 0.0 0.0 -0.04868475175275728 1.9972019359455755 0.06571579755931053 0.0 -2.484808344893373e-17 0.0 0.0 -2.484808344893373e-17 0.0 0.0 -2.484808344893373e-17 0.0 0.0 -2.484808344893373e-17 0.0 132.40956368474073 11.369187812607306 -163.30404038164966 95.53587156513471 -4.70994709575216e-15 -4.275524609019783e-15 -1.3101225244093274e-14 57.14519723558303 1.075651985934391e-14 1.5902773407317584e-15 0.0 0.0 -135.74356666634355 10.113428599593986 158.84424329957207 -106.06507261878038 6.995043753984738e-15 -1.284135229925798e-15 -180.0 -29.03917627700718 180.0 0.0 0.0 1.5902773407317584e-15 1.2538311205710004 5.325871579334565e-15 7.369096391310159e-16 -7.951386703658792e-16 0.0 0.0
45.197596478462216 -31.09334775209427 523.3772506713867 121.73250778977695 -81.78801766635667 121.08287010435693 -3.015680743781753 5.279276755335032 -35.47168457016146 7.623565450496314 -1.0796515771118855 49.423133489877614 -42.82390392451116 -6.3611093629270335e-15 50.4988507806231 0.0 0.0 -6.361109362927033e-15 29.8156924898689 27.717691652633054 15.956184192828216 -23.43550130498665 -8.3712627284401 -42.689502454226066 -37.00968770722988 -9.54166404439055e-15 -77.6768939674998 0.0 0.0 0.0 -0.044010912113448826 1.9993740855210023 0.06286134917752094 0.0 0.0 0.0 0.0 0.0 0.0 0.0 0.0 0.0 0.0 0.0 0.0 132.99548825093643 11.172724777098933 -163.887884346226 95.5805913589403 -1.0684215521592253e-15 1.1779038192172334e-15 4.222594762936123e-15 50.24251450633117 -9.00557535507701e-15 0.0 0.0 -6.3611093629270335e-15 -135.59517746122083 10.333250126087671 158.90430106417955 -105.83634224996113 0.0 -0.0 -180.0 -31.34555466176581 180.0 -7.951386703658792e-16 -8.276074308844047e-33 1.1927080055488188e-15 1.2299729214167299 4.828784995732173e-15 7.433525354397335e-16 0.0 0.0 0.0
45.61068570613862 -30.974486339092252 523.370927810669 120.70835506283153 -81.66410636224751 120.21087175253042 -2.333799580326251 4.643390969404072 -35.3362332347743 6.741073286842641 -0.9794927361726766 48.78624676342626 -35.57621436120678 -3.1805546814635168e-15 47.11460394585074 0.0 0.0 0.0 30.42977263002527 27.994907444413265 16.226411689653435 -24.78105988464268 -8.50181280626173 -44.19844269272576 -35.829980777030315 -1.5902773407317584e-14 -74.29720003875127 6.3611093629270335e-15 -1.7655625192200634e-31 -3.1805546814635168e-15 -0.03942048418735958 2.0072804998097986 0.06972749225093056 -7.951386703658794e-16 0.0 0.0 -7.951386703658794e-16 0.0 0.0 -7.951386703658794e-16 0.0 0.0 -7.951386703658794e-16 0.0 0.0 133.37585684585565 10.281468425064864 -164.1017907199575 96.22352623117358 4.7355192139411714e-15 4.2471837847580775e-15 6.620328183251406e-15 45.61249520970251 6.665165233739897e-16 0.0 0.0 0.0 -135.43489744426893 10.615901894618204 159.01011479779132 -105.52245545634267 -5.064210210052205e-15 3.84934894177197e-15 -180.0 -33.78900962534256 -180.0 -1.5902773407317584e-15 1.6552148617688095e-32 -1.1927080055488188e-15 1.212511365773834 -3.0068430867874196e-15 -2.353732485450753e-15 0.0 0.0 0.0
46.02040243148804 -30.818398153781892 523.3628568649292 119.79254539484683 -81.60423308202165 119.46843405412932 -1.7691688120599527 4.126754072678628 -35.154105344420444 6.045651197237231 -0.9097557557056046 48.24869693527191 -28.84495666869561 -6.3611093629270335e-15 44.44836814972503 0.0 0.0 0.0 30.753601980752762 28.08916155360919 16.74392917010278 -25.749097604966703 -8.432870108947126 -45.71161605120292 -34.47306493296025 -1.90833280887811e-14 -70.47713839130974 0.0 0.0 3.1805546814635168e-15 -0.033628990133644746 2.020752260305348 0.08438140550771711 -7.951386703658792e-16 0.0 0.0 -7.951386703658792e-16 0.0 0.0 -7.951386703658792e-16 0.0 0.0 -7.951386703658792e-16 0.0 0.0 133.38267860346028 9.345840279491366 -164.11624709312002 96.45985588225626 3.684916283898337e-15 5.423475484246584e-15 2.8280969140892306e-15 39.89054181409956 -7.793286512789594e-15 0.0 0.0 0.0 -135.1695979295995 10.843198197029995 159.07260552396522 -105.1701910252201 -3.11990379031142e-15 6.391075085468633e-15 180.0 -35.61616600117068 180.0 0.0 0.0 -3.975693351829396e-16 1.1958847531682875 -9.34237060830874e-15 9.750110987340345e-17 -7.951386703658792e-16 -5.517382872562698e-33 7.951386703658792e-16
46.477860474586485 -30.60611275434494 523.3416194915771 118.99317768666468 -81.62185999556894 118.85558750768782 -1.318306713275087 3.7207157433576556 -34.85070197521421 5.519121356197888 -0.8742950226219678 47.65638605933826 -22.939430163535484 0.0 42.40646904726177 0.0 0.0 0.0 30.827614278586022 28.007628915981876 17.467933659872905 -26.430113010934576 -8.206222310303131 -47.12634868702912 -32.88801291549968 7.951386703658792e-15 -66.35875826114481 -3.1805546814635168e-15 3.1805546814635168e-15 -3.1805546814635168e-15 -0.026241660326493544 2.0319364332786995 0.08982269182250678 3.975693351829396e-16 0.0 0.0 3.975693351829396e-16 0.0 0.0 3.975693351829396e-16 0.0 0.0 3.975693351829396e-16 0.0 0.0 133.33362698433842 8.288194430160406 -163.97286766535987 96.50641656363278 1.5296839270565097e-14 1.1519943632457763e-14 -6.353498393530357e-15 39.12086732035538 -1.117913488851072e-15 0.0 0.0 0.0 -134.8099580278323 11.025879312624797 159.10342498536332 -104.81955164693387 -2.7201771115500376e-15 -1.3961346572497553e-14 180.0 -36.97549716938385 -180.0 7.951386703658791e-16 -3.180554681463516e-15 2.3854160110976368e-15 1.22208072273185 6.8661607616238775e-15 7.219558014948494e-16 0.0 0.0 0.0
46.99363389015198 -30.347500312328343 523.2955965042115 118.28794562833136 -81.69487076844582 118.27967169521172 -0.8432196023495242 3.304662684069811 -34.35377272865517 4.993099632320457 -0.852005292509616 46.97534592936316 -23.795265280970945 -2.2263882770244617e-14 42.24754039574274 0.0 0.0 0.0 30.9059919715007 27.941858268434018 18.43480473987681 -27.195600308091084 -7.8619252083227105 -48.66078041227799 -30.92772850239313 4.770832022195275e-15 -61.77115441792226 0.0 0.0 0.0 -0.018643578353584492 2.0208148740976424 0.06849414013106433 -3.975693351829396e-16 0.0 0.0 -3.975693351829396e-16 0.0 0.0 -3.975693351829396e-16 0.0 0.0 -3.975693351829396e-16 0.0 0.0 133.577832248719 6.726913522055843 -164.00059665679296 96.33299901531238 3.745741209476666e-15 -1.3721806893671772e-14 5.665372227218841e-15 31.936816688951925 -8.237552668007778e-15 -3.1805546814635168e-15 0.0 0.0 -134.42639419290091 11.12566458026769 159.09770112942573 -104.52344177877964 1.0060918823288276e-14 -7.786704164129746e-15 180.0 -37.98137598228022 180.0 0.0 0.0 1.5902773407317584e-15 1.2373753615539773 1.1362587049785661e-14 -1.7130695996130798e-15 0.0 0.0 0.0
47.56063084602356 -30.05482020378113 523.2229579925537 117.71081162531003 -81.82387649870842 117.76671693004296 -0.3729217535750059 2.911266339887576 -33.67439929901935 4.527631440126157 -0.8454132586532915 46.162884238615085 -31.537880801057668 4.770832022195275e-15 42.06094941673831 0.0 0.0 0.0 31.05067639063663 27.927497410880125 19.59602841827539 -28.554649659105017 -7.514111573544511 -50.87848837330597 -26.48076302325729 -1.5902773407317584e-14 -55.14227975205367 0.0 0.0 -3.1805546814635168e-15 -0.011874217699687177 1.9971175651181192 0.04208559357883536 0.0 0.0 0.0 0.0 0.0 0.0 0.0 0.0 0.0 0.0 0.0 0.0 134.32469498895998 4.276375018363157 -164.3404341035839 95.92057269559474 -2.1627277272981255e-14 -4.511585941046606e-15 4.217129652597358e-15 16.25812442572918 1.5461816390692845e-14 0.0 0.0 0.0 -134.04915629484924 11.302536597201021 159.29932111298237 -104.325774160256 1.0047471988614703e-14 -7.80404740801046e-15 180.0 -37.96934415025493 180.0 -7.951386703658792e-16 -1.1034765745125397e-32 1.5902773407317584e-15 1.1898823466338802 -6.808007825893475e-15 7.069473137177733e-17 7.951386703658792e-16 0.0 0.0
